<svg xmlns="http://www.w3.org/2000/svg" width="26" height="26" id="apple"><g transform="translate(0 -1026.362)"><circle cx="13" cy="1039.362" r="13" fill="#424242" fill-rule="evenodd"></circle><path fill="none" stroke="#fff" stroke-linecap="round" d="M16.014 1031.88c-1.015 0-1.579.406-1.973.97-.394.565-.613 1.234-.613 2.02.671 0 1.298-.16 1.832-.776.534-.615.757-1.264.754-2.214zm-.446 3.933c-.372 0-.833.088-1.359.262-.526.173-.898.26-1.139.26-.175 0-.548-.087-1.095-.239-.548-.152-1.03-.24-1.403-.24-.898 0-1.642.37-2.234 1.129-.592.76-.899 1.736-.899 2.93 0 1.259.394 2.584 1.16 3.93.79 1.345 1.579 2.017 2.39 2.017.262 0 .614-.085 1.052-.26.416-.173.81-.261 1.117-.261.35 0 .746.087 1.184.261.482.174.854.26 1.095.26.68 0 1.358-.521 2.038-1.541.438-.651.767-1.302.964-1.953-.416-.13-.832-.478-1.205-.977a2.923 2.923 0 0 1-.548-1.736c0-.586.175-1.128.503-1.627.176-.26.483-.565.899-.934-.285-.325-.547-.586-.832-.78-.504-.348-1.052-.5-1.688-.5z"></path></g></svg>